<svg width="63" height="90" viewBox="0 0 63 90" fill="none" xmlns="http://www.w3.org/2000/svg">
<g clip-path="url(#clip0_2004_156)">
<path d="M14.8186 72.2512C10.3814 72.2512 8.1209 70.1581 8.1209 66.1395C8.1209 62.1209 10.3814 60.0279 14.8186 60.0279C19.2558 60.0279 21.5163 62.1209 21.5163 66.1395C21.5163 70.1581 19.2558 72.2512 14.8186 72.2512ZM23.2744 73.6744C23.2744 72.1674 24.0279 70.6604 25.2 69.5721C23.4418 68.0651 22.4372 65.8046 22.4372 63.1256C22.4372 60.7814 23.2744 58.3535 25.0325 56.5116C22.6046 54.586 19.1721 53.6651 14.7349 53.6651C5.35811 53.6651 0.418579 57.9349 0.418579 66.0558C0.418579 74.1767 5.35811 78.5302 14.8186 78.5302C18.6697 78.5302 21.7674 77.7767 24.1116 76.3535C23.5256 75.6 23.2744 74.6791 23.2744 73.6744Z" fill="white"/>
<path d="M34.9954 66.6419C31.9814 66.6419 30.1396 65.1349 30.1396 62.707C30.1396 60.2791 32.0652 58.6884 34.9954 58.6884C37.9256 58.6884 39.6838 60.1954 39.6838 62.7907C39.6838 65.1349 37.8419 66.6419 34.9954 66.6419ZM48.4745 54.3349H39.6838C38.2605 54.0837 36.921 53.8326 35.1628 53.8326C27.0419 53.8326 23.4419 58.521 23.4419 63.1256C23.4419 66.0558 24.6977 68.4 26.9582 69.6558C25.3675 70.4093 24.1954 72 24.1954 73.6744C24.1954 75.3489 25.1163 76.6047 26.7907 77.4419C28.9675 78.5303 33.4884 78.614 35.9163 78.614H37.3396C39.8512 78.614 41.1907 79.5349 41.1907 81.293C41.1907 83.5535 38.7628 84.9768 34.8279 84.9768C29.3024 84.9768 25.2 83.7209 25.2 83.7209L23.8605 88.3256C23.8605 88.3256 27.1256 90 33.907 90C42.1117 90 48.1396 86.0651 48.1396 80.5396C48.1396 76.0186 44.9582 73.507 39.1814 73.507H35.2465C32.0652 73.507 31.4791 73.0884 31.4791 72.2512C31.4791 71.8326 31.7303 71.3303 32.5675 70.9954C33.321 71.1628 34.4931 71.1628 35.0791 71.1628C42.1117 71.1628 46.2977 67.8977 46.2977 62.4558C46.2977 61.3675 45.9628 60.2791 45.2931 59.5256H48.4745V54.3349Z" fill="white"/>
<path d="M61.5349 7.61861C61.5349 6.27908 61.1163 5.27443 60.2791 4.52094C59.4419 3.76745 58.2698 3.43257 56.8465 3.43257C55.3396 3.43257 54.2512 3.76745 53.414 4.52094C52.5768 5.19071 52.1582 6.19536 52.1582 7.53489C52.1582 8.3721 52.2419 9.20931 52.4931 9.9628H51.8233C51.5721 9.29303 51.4884 8.45582 51.4884 7.36745C51.4884 5.94419 51.9907 4.7721 52.9117 3.93489C53.8326 3.09768 55.1721 2.67908 56.8465 2.67908C57.9349 2.67908 58.8558 2.84652 59.6093 3.26512C60.4465 3.68373 61.0326 4.26977 61.4512 5.02326C61.8698 5.77675 62.121 6.61396 62.121 7.61861C62.121 8.62326 61.9535 9.54419 61.5349 10.2977L60.8651 10.0465C61.3675 9.29303 61.5349 8.45582 61.5349 7.61861Z" fill="white"/>
<path d="M51.6559 12.2233H62.0373V12.9768H52.3257V17.9163H51.6559V12.2233Z" fill="white"/>
<path d="M51.6559 25.3675V19.6744H62.0373V25.3675H61.3675V20.4279H57.4326V25.1163H56.7629V20.4279H52.3257V25.3675H51.6559Z" fill="white"/>
<path d="M55.3396 32.6512V28.4651L51.6559 27.0419V26.2047L62.0373 30.3907V30.893L51.6559 34.9953V34.1581L55.3396 32.6512ZM56.0094 28.7163V32.4L59.7768 30.9767C60.1117 30.893 60.4466 30.7256 61.0326 30.5581C60.614 30.3907 60.1954 30.307 59.7768 30.1395L56.0094 28.7163Z" fill="white"/>
<path d="M51.6559 43.9535V43.2L60.8652 37.0884V37.0047C59.7768 37.0884 58.9396 37.0884 58.3536 37.0884H51.6559V36.4186H62.0373V37.1721L52.828 43.2838V43.3675C53.6652 43.2838 54.5024 43.2838 55.2559 43.2838H62.0373V43.9535H51.6559Z" fill="white"/>
<path d="M51.6559 51.4047V50.6512H62.0373V56.3442H61.3675V51.4047H56.9303V56.093H56.2605V51.4047H51.6559Z" fill="white"/>
<path d="M62.0373 65.5535H55.3396C54.1675 65.5535 53.2466 65.2186 52.5768 64.5489C51.907 63.8791 51.5721 62.8745 51.5721 61.7024C51.5721 60.5303 51.907 59.5256 52.5768 58.8559C53.2466 58.1861 54.1675 57.8512 55.4233 57.8512H62.121V58.6047H55.4233C54.4187 58.6047 53.6652 58.8558 53.0791 59.4419C52.4931 60.0279 52.2419 60.7814 52.2419 61.7861C52.2419 62.7907 52.4931 63.5442 53.0791 64.0465C53.6652 64.5489 54.4187 64.8838 55.3396 64.8838H62.121V65.5535H62.0373Z" fill="white"/>
<path d="M51.6559 74.0931V68.4H62.0373V74.0931H61.3675V69.1535H57.4326V73.8419H56.7629V69.1535H52.3257V74.0931H51.6559Z" fill="white"/>
<path d="M51.6559 76.4372H62.0373V77.1907H52.3257V82.1302H51.6559V76.4372Z" fill="white"/>
<path d="M54.3349 89.5814C53.4977 89.5814 52.7442 89.2465 52.2419 88.6605C51.7396 87.9907 51.4884 87.1535 51.4884 86.1489C51.4884 84.893 51.6558 83.8884 51.907 83.2186H52.6605C52.3256 83.9721 52.1582 84.893 52.1582 86.0651C52.1582 86.9024 52.3256 87.5721 52.7442 88.0744C53.1628 88.5768 53.6652 88.8279 54.2512 88.8279C54.6698 88.8279 55.0047 88.7442 55.2558 88.5768C55.507 88.4093 55.7582 88.1582 55.9256 87.7396C56.1768 87.4047 56.3442 86.8186 56.5954 86.0651C56.9303 84.9768 57.3489 84.307 57.7675 83.8884C58.1861 83.4698 58.7721 83.3023 59.4419 83.3023C60.1954 83.3023 60.8652 83.6372 61.3675 84.2233C61.8698 84.8093 62.121 85.6465 62.121 86.5675C62.121 87.5721 61.9535 88.493 61.5349 89.3303L60.9489 89.0791C61.2838 88.2419 61.4512 87.4047 61.4512 86.6512C61.4512 85.8977 61.2838 85.3117 60.9489 84.8093C60.614 84.3907 60.1117 84.1396 59.5256 84.1396C59.107 84.1396 58.8558 84.2233 58.6047 84.3907C58.3535 84.5582 58.1024 84.7256 57.9349 85.0605C57.7675 85.3954 57.5163 85.8977 57.2651 86.6512C57.014 87.4884 56.6791 88.0744 56.4279 88.493C56.1768 88.9116 55.8419 89.1628 55.507 89.414C55.2558 89.4977 54.8372 89.5814 54.3349 89.5814Z" fill="white"/>
<path d="M22.4373 48.0558H38.2605L30.3907 37.1721L22.4373 48.0558Z" fill="white"/>
<path d="M15.4047 44.707L24.1954 32.6512L10.0465 28.0465C8.03721 27.3767 6.94884 25.2 7.53488 23.1907C8.20465 21.1814 10.3814 20.093 12.3907 20.6791L26.5395 25.2837V10.4651C26.5395 8.37209 28.2977 6.61395 30.3907 6.61395C32.4837 6.61395 34.2419 8.37209 34.2419 10.4651V25.3674L48.0558 20.8465V9.37674C48.0558 4.18605 43.8698 0 38.6791 0H9.37675C4.18605 0 0 4.18605 0 9.37674V38.7628C0 43.9535 4.18605 48.1395 9.37675 48.1395H14.8186C14.4837 46.9674 14.6512 45.7116 15.4047 44.707Z" fill="white"/>
<path d="M36.6698 32.6511L45.3768 44.7069C45.4605 44.8744 45.5442 44.9581 45.6279 45.1255C47.1349 43.4511 48.1396 41.2744 48.1396 38.7628V28.9674L36.6698 32.6511Z" fill="white"/>
</g>
<defs>
<clipPath id="clip0_2004_156">
<rect width="62.1209" height="90" fill="white"/>
</clipPath>
</defs>
</svg>
